<?xml version="1.0" standalone="no"?>
<!DOCTYPE svg PUBLIC "-//W3C//DTD SVG 20010904//EN"
 "http://www.w3.org/TR/2001/REC-SVG-20010904/DTD/svg10.dtd">
<svg version="1.0" xmlns="http://www.w3.org/2000/svg"
 width="400.000000pt" height="400.000000pt" viewBox="0 0 400.000000 400.000000"
 preserveAspectRatio="xMidYMid meet">
<metadata>
Created by potrace 1.11, written by Peter Selinger 2001-2013
</metadata>
<g transform="translate(0.000000,400.000000) scale(0.100000,-0.100000)"
fill="#000000" stroke="none">
<path d="M2730 3136 c-170 -38 -278 -136 -331 -301 -21 -66 -22 -89 -24 -417
-2 -192 0 -348 3 -348 3 0 19 11 36 24 17 13 35 24 39 24 5 0 18 12 30 26 19
21 25 23 39 12 10 -7 14 -17 10 -21 -4 -5 -1 -5 6 -1 7 5 11 10 8 13 -3 3 -1
15 5 27 10 20 10 20 -5 2 -9 -11 -18 -17 -22 -14 -7 7 32 48 46 48 5 0 7 -8 3
-17 -5 -17 -5 -16 8 0 8 10 23 20 34 21 11 2 19 9 17 15 -1 7 11 19 28 29 16
9 30 23 30 30 0 8 -6 6 -19 -5 -58 -54 -83 -74 -88 -69 -7 7 59 65 75 66 6 0
12 4 12 8 0 4 23 25 51 47 42 32 52 36 61 24 7 -11 9 -9 5 9 -7 29 26 49 51
31 14 -11 15 -11 5 1 -7 8 -13 18 -13 22 0 12 34 9 50 -4 8 -7 6 -3 -4 10 -16
19 -17 22 -3 22 8 0 17 -3 20 -7 2 -5 2 -2 0 6 -2 8 4 22 13 32 14 15 20 17
32 7 13 -11 14 -9 8 12 l-7 25 20 -24 c12 -13 21 -18 21 -13 0 6 -4 14 -10 17
-5 3 -10 11 -10 18 0 8 3 8 12 -1 20 -20 40 -15 33 8 -5 16 2 28 27 50 18 16
41 30 50 30 9 0 20 5 23 11 4 6 14 8 22 5 8 -3 11 -1 8 4 -3 6 -1 10 6 10 7 0
10 3 7 6 -4 3 -21 -2 -40 -11 l-33 -17 29 26 c33 30 37 31 56 14 11 -10 11 -9
0 6 -12 15 -12 20 -2 23 6 3 9 10 6 15 -4 7 -2 8 4 4 21 -13 51 -15 58 -4 4 6
3 8 -3 5 -6 -4 -13 4 -15 18 -6 27 9 33 32 13 8 -7 7 -4 -3 8 -17 20 -14 34 7
34 6 0 5 -4 -2 -9 -11 -7 -11 -9 1 -14 15 -5 18 15 5 28 -7 8 33 74 46 75 5 0
3 -6 -3 -14 -9 -10 -8 -15 2 -19 11 -4 13 2 11 23 -3 24 0 28 14 23 14 -5 13
-2 -3 11 -19 16 -19 17 -1 12 16 -6 17 -4 6 10 -8 9 -10 18 -4 22 10 8 15 82
5 82 -4 0 -13 15 -20 33 -7 18 -23 38 -35 44 -56 30 -94 45 -129 53 -58 13
-344 10 -407 -4z m470 -422 c0 -8 -5 -12 -10 -9 -6 4 -8 11 -5 16 9 14 15 11
15 -7z m-206 -179 c3 -8 1 -15 -4 -15 -6 0 -10 7 -10 15 0 8 2 15 4 15 2 0 6
-7 10 -15z"/>
<path d="M3335 2920 c-3 -5 -1 -10 4 -10 6 0 11 5 11 10 0 6 -2 10 -4 10 -3 0
-8 -4 -11 -10z"/>
<path d="M3259 2803 c-13 -16 -12 -17 3 -5 9 8 23 10 29 6 8 -4 9 -3 5 4 -10
17 -21 15 -37 -5z"/>
<path d="M3170 2680 c0 -5 5 -10 11 -10 5 0 7 5 4 10 -3 6 -8 10 -11 10 -2 0
-4 -4 -4 -10z"/>
<path d="M3057 2593 c-3 -5 6 -9 20 -10 19 -1 22 1 12 8 -17 11 -26 11 -32 2z"/>
<path d="M3020 2555 c-8 -9 -8 -15 0 -20 10 -6 14 1 11 18 -1 5 7 6 18 2 11
-3 22 -2 25 3 9 15 -42 11 -54 -3z"/>
<path d="M1266 2525 c-109 -44 -222 -149 -272 -251 -47 -97 -40 -208 17 -283
10 -13 16 -27 13 -32 -3 -5 2 -6 10 -3 10 4 16 1 16 -8 0 -8 10 -23 23 -34
l22 -19 -20 24 c-11 14 -14 21 -7 17 8 -5 23 -22 34 -40 11 -17 18 -23 14 -14
-4 15 -3 16 14 5 11 -6 20 -15 20 -20 0 -4 -4 -6 -9 -2 -5 3 -12 1 -15 -4 -3
-5 8 -7 25 -6 25 2 30 0 26 -15 -3 -13 0 -17 9 -13 8 3 11 10 7 16 -3 6 -1 7
5 3 7 -4 12 -15 12 -24 0 -15 2 -15 10 -2 6 10 10 11 10 3 0 -7 7 -13 15 -13
8 0 15 -4 15 -8 0 -4 16 -14 36 -21 25 -9 34 -17 29 -28 -4 -13 -3 -14 10 -3
12 10 15 10 15 -4 0 -11 5 -14 12 -10 8 5 9 1 4 -12 -5 -15 -4 -16 5 -7 15 15
39 6 39 -16 0 -14 2 -14 10 -1 8 13 10 12 10 -3 0 -10 5 -15 10 -12 6 3 10 1
10 -6 0 -7 3 -9 7 -5 4 3 13 -4 21 -16 7 -13 11 -15 8 -5 -6 20 9 23 17 3 3
-7 0 -20 -6 -27 -10 -11 -9 -11 5 0 14 10 22 10 45 -1 15 -8 27 -20 25 -28 -2
-10 0 -11 11 -2 14 12 27 7 27 -10 0 -5 -5 -6 -12 -2 -7 4 -8 3 -4 -4 4 -6 13
-9 21 -5 8 3 15 1 15 -5 0 -5 8 -13 17 -16 15 -6 15 -5 -1 13 -11 12 -14 21
-7 26 6 3 11 11 11 16 0 6 -4 7 -10 4 -5 -3 -10 -1 -10 4 0 6 6 11 13 11 8 0
7 4 -3 10 -13 8 -13 10 2 10 9 0 20 5 24 11 4 7 0 9 -13 5 -13 -4 -20 -2 -20
8 0 9 4 13 8 11 4 -3 9 1 11 8 6 15 -1 38 -11 33 -4 -3 -8 5 -8 17 -2 17 0 19
7 7 8 -13 10 -12 10 3 0 9 -4 17 -9 17 -16 0 -6 45 14 58 19 12 19 13 -2 7
-14 -4 -23 -2 -23 4 0 6 6 11 14 11 8 0 18 5 22 11 4 8 -1 9 -17 4 -21 -7 -22
-6 -10 9 7 9 9 16 4 16 -5 0 -9 11 -9 24 0 14 4 22 8 20 5 -3 6 -9 3 -14 -3
-5 -1 -11 4 -15 6 -3 8 4 6 16 -3 13 -9 25 -14 28 -5 3 -8 20 -8 38 1 17 5 29
10 26 4 -2 5 -9 2 -14 -4 -5 -1 -9 4 -9 16 0 13 16 -4 34 -17 17 -20 30 -5 21
6 -3 10 -1 10 5 0 6 5 8 11 5 6 -4 5 2 -2 13 -7 12 -16 19 -19 17 -4 -2 -6 9
-6 25 0 16 3 27 7 24 5 -2 7 -10 5 -17 -1 -7 -1 -9 1 -4 3 4 10 4 16 0 8 -4 7
-1 -1 9 -7 8 -10 23 -6 32 4 11 1 16 -10 16 -9 0 -16 5 -16 11 0 5 6 7 13 3
10 -6 10 -4 0 7 -16 16 -17 29 -2 29 5 0 7 -6 3 -12 -5 -9 -2 -9 9 1 17 14 24
26 9 17 -4 -2 -14 -1 -22 5 -13 7 -13 9 -1 9 11 0 9 4 -5 15 -15 12 -16 16 -5
24 11 7 11 9 0 14 -9 3 -7 6 6 7 19 1 18 2 -2 10 -14 6 -21 15 -17 24 3 8 0
17 -6 21 -8 5 -8 11 1 21 10 12 10 15 -2 12 -8 -2 -13 3 -12 10 2 6 -2 12 -9
12 -6 0 -9 3 -5 6 6 6 -23 44 -66 85 -56 53 -156 62 -251 24z"/>
<path d="M2916 2475 c-9 -26 -7 -32 5 -12 6 10 9 21 6 23 -2 3 -7 -2 -11 -11z"/>
<path d="M2934 2459 c-3 -6 -2 -15 3 -20 5 -5 9 -1 9 11 0 23 -2 24 -12 9z"/>
<path d="M2810 2390 c0 -6 -6 -8 -12 -4 -7 4 -9 3 -5 -1 10 -12 37 -15 37 -5
0 5 -4 12 -10 15 -5 3 -10 1 -10 -5z"/>
<path d="M2734 2334 c-18 -14 -18 -14 6 -3 31 14 36 19 24 19 -6 0 -19 -7 -30
-16z"/>
<path d="M2766 2324 c-23 -23 -20 -30 4 -9 11 10 20 20 20 22 0 7 -9 2 -24
-13z"/>
<path d="M2706 2278 c3 -4 11 -5 19 -1 21 7 19 12 -4 10 -11 0 -18 -5 -15 -9z"/>
<path d="M2595 2189 c-4 -6 -5 -12 -2 -15 2 -3 7 2 10 11 7 17 1 20 -8 4z"/>
<path d="M2484 2122 c3 -5 0 -12 -6 -15 -7 -2 -10 -7 -7 -11 3 -4 12 0 18 8 9
11 9 16 0 22 -7 4 -9 3 -5 -4z"/>
<path d="M2439 2099 c-8 -16 -8 -24 1 -33 8 -8 9 -6 4 8 -4 12 -4 17 2 13 5
-3 10 3 10 14 0 24 -3 24 -17 -2z"/>
<path d="M2299 2007 c-307 -240 -444 -350 -502 -406 -114 -110 -159 -229 -123
-330 21 -56 68 -118 118 -154 21 -15 36 -32 33 -37 -3 -5 0 -7 8 -5 13 6 89
-47 87 -60 -1 -4 2 -10 6 -13 4 -4 4 -1 0 6 -10 17 6 15 30 -4 10 -8 12 -12 4
-8 -8 4 -12 3 -8 -1 5 -5 20 -10 35 -11 15 -2 35 -13 45 -26 15 -19 17 -19 11
-4 -5 16 -3 18 13 12 32 -13 108 -14 116 -2 6 8 8 7 8 -1 0 -7 5 -13 12 -13 6
0 8 3 5 7 -4 3 1 12 11 19 20 15 56 0 46 -19 -4 -7 -3 -8 2 -4 5 5 10 13 10
18 1 5 2 14 3 20 0 5 6 7 13 3 7 -5 8 -3 3 6 -6 10 -11 9 -21 -4 -7 -10 -15
-13 -18 -7 -4 5 3 15 14 21 11 6 27 24 35 41 13 24 21 29 38 24 18 -5 19 -4 5
4 -10 7 -14 19 -11 32 5 16 8 18 15 7 7 -9 8 -4 3 15 -4 19 -2 26 5 22 5 -3
10 -1 10 4 0 6 -6 11 -12 11 -8 0 -9 3 -3 8 13 9 20 41 24 105 1 10 6 15 11
12 6 -3 10 -2 10 4 0 5 -6 11 -12 13 -10 4 -10 10 -1 31 7 15 9 27 4 27 -10 0
-8 90 2 108 5 7 4 12 -2 12 -20 0 -11 20 12 30 22 9 22 9 -3 10 l-25 1 22 18
c12 10 19 21 16 25 -3 3 -12 -2 -19 -12 -11 -15 -12 -14 -11 10 1 14 5 24 10
21 4 -2 7 0 7 6 0 5 -5 11 -12 13 -13 5 -2 28 13 28 6 0 8 -4 4 -9 -3 -5 -1
-12 4 -15 5 -4 8 1 7 11 -2 9 -11 19 -21 23 -13 5 -15 9 -7 14 7 4 17 17 23
29 9 19 8 19 -9 -3 l-20 -24 1 26 c1 14 5 24 10 21 4 -2 7 1 7 6 0 6 -4 11 -9
11 -11 0 -9 49 2 67 4 6 1 14 -5 17 -9 3 -7 9 6 20 19 15 19 16 2 16 -15 0
-16 3 -6 15 7 8 16 12 21 9 5 -3 6 2 3 11 -6 14 -8 14 -19 -2 -12 -16 -13 -15
-12 9 1 14 5 24 10 21 4 -2 7 1 7 6 0 6 -4 11 -9 11 -11 0 -9 49 2 68 5 6 4
12 -2 12 -5 0 -8 11 -6 25 1 14 -1 25 -4 24 -3 0 -36 -24 -72 -52z"/>
<path d="M1645 1970 c-3 -6 1 -7 9 -4 18 7 21 14 7 14 -6 0 -13 -4 -16 -10z"/>
<path d="M2395 1940 c3 -5 8 -10 11 -10 2 0 4 5 4 10 0 6 -5 10 -11 10 -5 0
-7 -4 -4 -10z"/>
<path d="M1646 1801 c-3 -5 2 -15 12 -22 15 -12 16 -12 5 2 -7 9 -10 19 -6 22
3 4 4 7 0 7 -3 0 -8 -4 -11 -9z"/>
<path d="M2392 1791 c-11 -7 -11 -9 0 -14 9 -3 15 1 15 9 0 8 -1 14 -1 14 -1
0 -7 -4 -14 -9z"/>
<path d="M1551 1604 c0 -11 3 -14 6 -6 3 7 2 16 -1 19 -3 4 -6 -2 -5 -13z"/>
<path d="M2392 1471 c-11 -7 -11 -9 0 -14 9 -3 15 1 15 9 0 8 -1 14 -1 14 -1
0 -7 -4 -14 -9z"/>
<path d="M2388 1403 c7 -3 16 -2 19 1 4 3 -2 6 -13 5 -11 0 -14 -3 -6 -6z"/>
<path d="M2375 1180 c-3 -5 -1 -10 4 -10 6 0 11 5 11 10 0 6 -2 10 -4 10 -3 0
-8 -4 -11 -10z"/>
<path d="M2371 1124 c0 -11 3 -14 6 -6 3 7 2 16 -1 19 -3 4 -6 -2 -5 -13z"/>
<path d="M2340 1096 c0 -2 7 -7 16 -10 8 -3 12 -2 9 4 -6 10 -25 14 -25 6z"/>
<path d="M2316 1057 c3 -10 9 -15 12 -12 3 3 0 11 -7 18 -10 9 -11 8 -5 -6z"/>
<path d="M2296 1034 c-8 -20 -8 -24 2 -24 4 0 8 9 9 20 2 24 -3 26 -11 4z"/>
<path d="M2090 942 c0 -5 7 -9 15 -9 8 0 12 4 9 9 -3 4 -9 8 -15 8 -5 0 -9 -4
-9 -8z"/>
<path d="M2129 923 c-13 -16 -12 -17 4 -4 16 13 21 21 13 21 -2 0 -10 -8 -17
-17z"/>
<path d="M2177 929 c7 -7 15 -10 18 -7 3 3 -2 9 -12 12 -14 6 -15 5 -6 -5z"/>
</g>
</svg>
