<?xml version="1.0"?>
<svg xmlns="http://www.w3.org/2000/svg" id="Icons" viewBox="0 0 74 74" width="512" height="512"><path d="M59,71H15a1,1,0,0,1-1-1V63.358C14,53.522,19.232,44.206,28.769,37,19.232,29.794,14,20.478,14,10.642V4a1,1,0,0,1,1-1H59a1,1,0,0,1,1,1v6.641C60,20.478,54.768,29.794,45.23,37,54.768,44.206,60,53.522,60,63.359V70A1,1,0,0,1,59,71ZM16,69H58V63.359c0-9.548-5.342-18.62-15.04-25.546a1,1,0,0,1,0-1.627c9.7-6.926,15.04-16,15.04-25.546V5H16v5.642c0,9.547,5.341,18.619,15.039,25.545a1,1,0,0,1,0,1.627C21.341,44.739,16,53.812,16,63.358Z"/><path d="M49.838,62H24.162a1,1,0,0,1-.99-1.136c.879-6.405,5.006-12.406,11.936-17.354l1.311-.937a1,1,0,0,1,1.162,0l1.312.937c6.931,4.948,11.058,10.948,11.937,17.354A1,1,0,0,1,49.838,62ZM25.35,60h23.3c-1.124-5.369-4.962-10.607-10.921-14.862L37,44.616l-.729.521C30.312,49.393,26.474,54.631,25.35,60ZM37,31.612a1,1,0,0,1-.581-.187l-1.311-.937c-6.93-4.947-11.057-10.948-11.936-17.354A1,1,0,0,1,24.162,12H49.838a1,1,0,0,1,.99,1.136c-.879,6.405-5.006,12.405-11.937,17.354l-1.312.937A1,1,0,0,1,37,31.612ZM25.35,14c1.124,5.369,4.962,10.607,10.92,14.862h0l.729.521.73-.521c5.959-4.255,9.8-9.493,10.921-14.862Z"/><path d="M64,5H10a1,1,0,0,1,0-2H64a1,1,0,0,1,0,2Z"/><path d="M64,71H10a1,1,0,0,1,0-2H64a1,1,0,0,1,0,2Z"/></svg>
